<mxfile host="app.diagrams.net" agent="Mozilla/5.0 (Windows NT 10.0; Win64; x64) AppleWebKit/537.36 (KHTML, like Gecko) Chrome/135.0.0.0 Safari/537.36 Edg/135.0.0.0" version="26.2.13">
  <diagram id="C5RBs43oDa-KdzZeNtuy" name="Page-1">
    <mxGraphModel dx="597" dy="327" grid="1" gridSize="10" guides="1" tooltips="1" connect="1" arrows="1" fold="1" page="1" pageScale="1" pageWidth="1169" pageHeight="827" background="none" math="0" shadow="0" adaptiveColors="simple">
      <root>
        <mxCell id="WIyWlLk6GJQsqaUBKTNV-0" />
        <mxCell id="WIyWlLk6GJQsqaUBKTNV-1" parent="WIyWlLk6GJQsqaUBKTNV-0" />
        <mxCell id="QhW3a99j18ydDRRvAq2B-8" value="" style="edgeStyle=orthogonalEdgeStyle;rounded=1;orthogonalLoop=1;jettySize=auto;html=1;labelBackgroundColor=none;strokeColor=#457B9D;fontColor=default;sketch=1;curveFitting=1;jiggle=2;" edge="1" parent="WIyWlLk6GJQsqaUBKTNV-1" source="QhW3a99j18ydDRRvAq2B-2" target="QhW3a99j18ydDRRvAq2B-6">
          <mxGeometry relative="1" as="geometry" />
        </mxCell>
        <mxCell id="QhW3a99j18ydDRRvAq2B-100" value="no" style="edgeLabel;html=1;align=center;verticalAlign=middle;resizable=0;points=[];sketch=1;hachureGap=4;jiggle=2;curveFitting=1;strokeColor=#457B9D;fontFamily=Architects Daughter;fontSource=https%3A%2F%2Ffonts.googleapis.com%2Fcss%3Ffamily%3DArchitects%2BDaughter;fontColor=#1D3557;fillColor=#A8DADC;" vertex="1" connectable="0" parent="QhW3a99j18ydDRRvAq2B-8">
          <mxGeometry x="0.2517" y="1" relative="1" as="geometry">
            <mxPoint as="offset" />
          </mxGeometry>
        </mxCell>
        <mxCell id="QhW3a99j18ydDRRvAq2B-9" value="" style="edgeStyle=orthogonalEdgeStyle;rounded=1;orthogonalLoop=1;jettySize=auto;html=1;labelBackgroundColor=none;strokeColor=#457B9D;fontColor=default;sketch=1;curveFitting=1;jiggle=2;" edge="1" parent="WIyWlLk6GJQsqaUBKTNV-1" source="QhW3a99j18ydDRRvAq2B-2" target="QhW3a99j18ydDRRvAq2B-4">
          <mxGeometry relative="1" as="geometry" />
        </mxCell>
        <mxCell id="QhW3a99j18ydDRRvAq2B-101" value="yes" style="edgeLabel;html=1;align=center;verticalAlign=middle;resizable=0;points=[];sketch=1;hachureGap=4;jiggle=2;curveFitting=1;strokeColor=#457B9D;fontFamily=Architects Daughter;fontSource=https%3A%2F%2Ffonts.googleapis.com%2Fcss%3Ffamily%3DArchitects%2BDaughter;fontColor=#1D3557;fillColor=#A8DADC;" vertex="1" connectable="0" parent="QhW3a99j18ydDRRvAq2B-9">
          <mxGeometry x="0.0281" y="-5" relative="1" as="geometry">
            <mxPoint as="offset" />
          </mxGeometry>
        </mxCell>
        <mxCell id="QhW3a99j18ydDRRvAq2B-2" value="Punya akun?" style="rhombus;whiteSpace=wrap;html=1;shadow=0;fontFamily=Helvetica;fontSize=12;align=center;strokeWidth=1;spacing=6;spacingTop=-4;fillColor=#A8DADC;labelBackgroundColor=none;strokeColor=#457B9D;fontColor=#1D3557;rounded=1;sketch=1;curveFitting=1;jiggle=2;" vertex="1" parent="WIyWlLk6GJQsqaUBKTNV-1">
          <mxGeometry x="540" y="140" width="100" height="80" as="geometry" />
        </mxCell>
        <mxCell id="QhW3a99j18ydDRRvAq2B-14" value="" style="edgeStyle=orthogonalEdgeStyle;rounded=1;orthogonalLoop=1;jettySize=auto;html=1;labelBackgroundColor=none;strokeColor=#457B9D;fontColor=default;sketch=1;curveFitting=1;jiggle=2;" edge="1" parent="WIyWlLk6GJQsqaUBKTNV-1" source="QhW3a99j18ydDRRvAq2B-4" target="QhW3a99j18ydDRRvAq2B-13">
          <mxGeometry relative="1" as="geometry" />
        </mxCell>
        <mxCell id="QhW3a99j18ydDRRvAq2B-4" value="Login&lt;span style=&quot;color: rgba(0, 0, 0, 0); font-family: monospace; font-size: 0px; text-align: start; text-wrap-mode: nowrap;&quot;&gt;%3CmxGraphModel%3E%3Croot%3E%3CmxCell%20id%3D%220%22%2F%3E%3CmxCell%20id%3D%221%22%20parent%3D%220%22%2F%3E%3CmxCell%20id%3D%222%22%20value%3D%22Plug%20in%20lamp%22%20style%3D%22rounded%3D1%3BwhiteSpace%3Dwrap%3Bhtml%3D1%3BfontSize%3D12%3Bglass%3D0%3BstrokeWidth%3D1%3Bshadow%3D0%3B%22%20vertex%3D%221%22%20parent%3D%221%22%3E%3CmxGeometry%20x%3D%22320%22%20y%3D%22190%22%20width%3D%22120%22%20height%3D%2240%22%20as%3D%22geometry%22%2F%3E%3C%2FmxCell%3E%3C%2Froot%3E%3C%2FmxGraphModel%3E&lt;/span&gt;&lt;span style=&quot;color: rgba(0, 0, 0, 0); font-family: monospace; font-size: 0px; text-align: start; text-wrap-mode: nowrap;&quot;&gt;%3CmxGraphModel%3E%3Croot%3E%3CmxCell%20id%3D%220%22%2F%3E%3CmxCell%20id%3D%221%22%20parent%3D%220%22%2F%3E%3CmxCell%20id%3D%222%22%20value%3D%22Plug%20in%20lamp%22%20style%3D%22rounded%3D1%3BwhiteSpace%3Dwrap%3Bhtml%3D1%3BfontSize%3D12%3Bglass%3D0%3BstrokeWidth%3D1%3Bshadow%3D0%3B%22%20vertex%3D%221%22%20parent%3D%221%22%3E%3CmxGeometry%20x%3D%22320%22%20y%3D%22190%22%20width%3D%22120%22%20height%3D%2240%22%20as%3D%22geometry%22%2F%3E%3C%2FmxCell%3E%3C%2Froot%3E%3C%2FmxGraphModel%3E&lt;/span&gt;" style="rounded=1;whiteSpace=wrap;html=1;fontSize=12;glass=0;strokeWidth=1;shadow=0;fillColor=#A8DADC;labelBackgroundColor=none;strokeColor=#457B9D;fontColor=#1D3557;sketch=1;curveFitting=1;jiggle=2;" vertex="1" parent="WIyWlLk6GJQsqaUBKTNV-1">
          <mxGeometry x="530" y="250" width="120" height="40" as="geometry" />
        </mxCell>
        <mxCell id="QhW3a99j18ydDRRvAq2B-12" style="edgeStyle=orthogonalEdgeStyle;rounded=1;orthogonalLoop=1;jettySize=auto;html=1;exitX=0.5;exitY=1;exitDx=0;exitDy=0;entryX=1;entryY=0.5;entryDx=0;entryDy=0;labelBackgroundColor=none;strokeColor=#457B9D;fontColor=default;sketch=1;curveFitting=1;jiggle=2;" edge="1" parent="WIyWlLk6GJQsqaUBKTNV-1" source="QhW3a99j18ydDRRvAq2B-6" target="QhW3a99j18ydDRRvAq2B-4">
          <mxGeometry relative="1" as="geometry">
            <mxPoint x="730" y="270" as="targetPoint" />
          </mxGeometry>
        </mxCell>
        <mxCell id="QhW3a99j18ydDRRvAq2B-6" value="Form Registrasi" style="rounded=1;whiteSpace=wrap;html=1;fontSize=12;glass=0;strokeWidth=1;shadow=0;fillColor=#A8DADC;labelBackgroundColor=none;strokeColor=#457B9D;fontColor=#1D3557;sketch=1;curveFitting=1;jiggle=2;" vertex="1" parent="WIyWlLk6GJQsqaUBKTNV-1">
          <mxGeometry x="670" y="160" width="120" height="40" as="geometry" />
        </mxCell>
        <mxCell id="QhW3a99j18ydDRRvAq2B-16" value="" style="edgeStyle=orthogonalEdgeStyle;rounded=1;orthogonalLoop=1;jettySize=auto;html=1;labelBackgroundColor=none;strokeColor=#457B9D;fontColor=default;sketch=1;curveFitting=1;jiggle=2;" edge="1" parent="WIyWlLk6GJQsqaUBKTNV-1">
          <mxGeometry relative="1" as="geometry">
            <mxPoint x="589.0344827586207" y="399.97241379310344" as="sourcePoint" />
            <mxPoint x="589.0344827586207" y="429.9999999999999" as="targetPoint" />
          </mxGeometry>
        </mxCell>
        <mxCell id="QhW3a99j18ydDRRvAq2B-102" value="yes" style="edgeLabel;html=1;align=center;verticalAlign=middle;resizable=0;points=[];sketch=1;hachureGap=4;jiggle=2;curveFitting=1;strokeColor=#457B9D;fontFamily=Architects Daughter;fontSource=https%3A%2F%2Ffonts.googleapis.com%2Fcss%3Ffamily%3DArchitects%2BDaughter;fontColor=#1D3557;fillColor=#A8DADC;" vertex="1" connectable="0" parent="QhW3a99j18ydDRRvAq2B-16">
          <mxGeometry x="-0.362" y="2" relative="1" as="geometry">
            <mxPoint as="offset" />
          </mxGeometry>
        </mxCell>
        <mxCell id="QhW3a99j18ydDRRvAq2B-79" value="" style="edgeStyle=orthogonalEdgeStyle;rounded=1;orthogonalLoop=1;jettySize=auto;html=1;labelBackgroundColor=none;strokeColor=#457B9D;fontColor=default;sketch=1;curveFitting=1;jiggle=2;" edge="1" parent="WIyWlLk6GJQsqaUBKTNV-1" source="QhW3a99j18ydDRRvAq2B-13" target="QhW3a99j18ydDRRvAq2B-78">
          <mxGeometry relative="1" as="geometry" />
        </mxCell>
        <mxCell id="QhW3a99j18ydDRRvAq2B-103" value="no" style="edgeLabel;html=1;align=center;verticalAlign=middle;resizable=0;points=[];sketch=1;hachureGap=4;jiggle=2;curveFitting=1;strokeColor=#457B9D;fontFamily=Architects Daughter;fontSource=https%3A%2F%2Ffonts.googleapis.com%2Fcss%3Ffamily%3DArchitects%2BDaughter;fontColor=#1D3557;fillColor=#A8DADC;" vertex="1" connectable="0" parent="QhW3a99j18ydDRRvAq2B-79">
          <mxGeometry x="0.0374" y="3" relative="1" as="geometry">
            <mxPoint as="offset" />
          </mxGeometry>
        </mxCell>
        <mxCell id="QhW3a99j18ydDRRvAq2B-13" value="Sukses?" style="rhombus;whiteSpace=wrap;html=1;shadow=0;fontFamily=Helvetica;fontSize=12;align=center;strokeWidth=1;spacing=6;spacingTop=-4;fillColor=#A8DADC;labelBackgroundColor=none;strokeColor=#457B9D;fontColor=#1D3557;rounded=1;sketch=1;curveFitting=1;jiggle=2;" vertex="1" parent="WIyWlLk6GJQsqaUBKTNV-1">
          <mxGeometry x="540" y="320" width="100" height="80" as="geometry" />
        </mxCell>
        <mxCell id="QhW3a99j18ydDRRvAq2B-22" value="" style="edgeStyle=orthogonalEdgeStyle;rounded=1;orthogonalLoop=1;jettySize=auto;html=1;labelBackgroundColor=none;strokeColor=#457B9D;fontColor=default;sketch=1;curveFitting=1;jiggle=2;" edge="1" parent="WIyWlLk6GJQsqaUBKTNV-1" source="QhW3a99j18ydDRRvAq2B-15" target="QhW3a99j18ydDRRvAq2B-21">
          <mxGeometry relative="1" as="geometry" />
        </mxCell>
        <mxCell id="QhW3a99j18ydDRRvAq2B-28" style="edgeStyle=orthogonalEdgeStyle;rounded=1;orthogonalLoop=1;jettySize=auto;html=1;exitX=0.5;exitY=1;exitDx=0;exitDy=0;entryX=0.5;entryY=0;entryDx=0;entryDy=0;labelBackgroundColor=none;strokeColor=#457B9D;fontColor=default;sketch=1;curveFitting=1;jiggle=2;" edge="1" parent="WIyWlLk6GJQsqaUBKTNV-1" source="QhW3a99j18ydDRRvAq2B-15">
          <mxGeometry relative="1" as="geometry">
            <mxPoint x="790" y="510" as="targetPoint" />
            <Array as="points">
              <mxPoint x="590" y="490" />
              <mxPoint x="790" y="490" />
            </Array>
          </mxGeometry>
        </mxCell>
        <mxCell id="QhW3a99j18ydDRRvAq2B-34" style="edgeStyle=orthogonalEdgeStyle;rounded=1;orthogonalLoop=1;jettySize=auto;html=1;exitX=0.5;exitY=1;exitDx=0;exitDy=0;entryX=0.5;entryY=0;entryDx=0;entryDy=0;labelBackgroundColor=none;strokeColor=#457B9D;fontColor=default;sketch=1;curveFitting=1;jiggle=2;" edge="1" parent="WIyWlLk6GJQsqaUBKTNV-1" source="QhW3a99j18ydDRRvAq2B-15" target="QhW3a99j18ydDRRvAq2B-32">
          <mxGeometry relative="1" as="geometry" />
        </mxCell>
        <mxCell id="QhW3a99j18ydDRRvAq2B-85" style="edgeStyle=orthogonalEdgeStyle;rounded=1;orthogonalLoop=1;jettySize=auto;html=1;exitX=0.5;exitY=1;exitDx=0;exitDy=0;entryX=0.5;entryY=0;entryDx=0;entryDy=0;labelBackgroundColor=none;strokeColor=#457B9D;fontColor=default;sketch=1;curveFitting=1;jiggle=2;" edge="1" parent="WIyWlLk6GJQsqaUBKTNV-1" source="QhW3a99j18ydDRRvAq2B-15" target="QhW3a99j18ydDRRvAq2B-38">
          <mxGeometry relative="1" as="geometry" />
        </mxCell>
        <mxCell id="QhW3a99j18ydDRRvAq2B-15" value="Dashboard" style="rounded=1;whiteSpace=wrap;html=1;fontSize=12;glass=0;strokeWidth=1;shadow=0;fillColor=#A8DADC;labelBackgroundColor=none;strokeColor=#457B9D;fontColor=#1D3557;sketch=1;curveFitting=1;jiggle=2;" vertex="1" parent="WIyWlLk6GJQsqaUBKTNV-1">
          <mxGeometry x="530" y="430" width="120" height="40" as="geometry" />
        </mxCell>
        <mxCell id="QhW3a99j18ydDRRvAq2B-40" value="" style="edgeStyle=orthogonalEdgeStyle;rounded=1;orthogonalLoop=1;jettySize=auto;html=1;labelBackgroundColor=none;strokeColor=#457B9D;fontColor=default;sketch=1;curveFitting=1;jiggle=2;" edge="1" parent="WIyWlLk6GJQsqaUBKTNV-1" source="QhW3a99j18ydDRRvAq2B-21" target="QhW3a99j18ydDRRvAq2B-39">
          <mxGeometry relative="1" as="geometry" />
        </mxCell>
        <mxCell id="QhW3a99j18ydDRRvAq2B-21" value="Booking Jadwal Studio" style="rounded=1;whiteSpace=wrap;html=1;fontSize=12;glass=0;strokeWidth=1;shadow=0;fillColor=#A8DADC;labelBackgroundColor=none;strokeColor=#457B9D;fontColor=#1D3557;sketch=1;curveFitting=1;jiggle=2;" vertex="1" parent="WIyWlLk6GJQsqaUBKTNV-1">
          <mxGeometry x="437" y="510" width="120" height="40" as="geometry" />
        </mxCell>
        <mxCell id="QhW3a99j18ydDRRvAq2B-48" value="" style="edgeStyle=orthogonalEdgeStyle;rounded=1;orthogonalLoop=1;jettySize=auto;html=1;labelBackgroundColor=none;strokeColor=#457B9D;fontColor=default;sketch=1;curveFitting=1;jiggle=2;" edge="1" parent="WIyWlLk6GJQsqaUBKTNV-1" source="QhW3a99j18ydDRRvAq2B-32" target="QhW3a99j18ydDRRvAq2B-47">
          <mxGeometry relative="1" as="geometry" />
        </mxCell>
        <mxCell id="QhW3a99j18ydDRRvAq2B-32" value="Riwayat Booking" style="rounded=1;whiteSpace=wrap;html=1;fontSize=12;glass=0;strokeWidth=1;shadow=0;fillColor=#A8DADC;labelBackgroundColor=none;strokeColor=#457B9D;fontColor=#1D3557;sketch=1;curveFitting=1;jiggle=2;" vertex="1" parent="WIyWlLk6GJQsqaUBKTNV-1">
          <mxGeometry x="580" y="510" width="120" height="40" as="geometry" />
        </mxCell>
        <mxCell id="QhW3a99j18ydDRRvAq2B-60" value="" style="edgeStyle=orthogonalEdgeStyle;rounded=1;orthogonalLoop=1;jettySize=auto;html=1;labelBackgroundColor=none;strokeColor=#457B9D;fontColor=default;sketch=1;curveFitting=1;jiggle=2;" edge="1" parent="WIyWlLk6GJQsqaUBKTNV-1" source="QhW3a99j18ydDRRvAq2B-35" target="QhW3a99j18ydDRRvAq2B-59">
          <mxGeometry relative="1" as="geometry" />
        </mxCell>
        <mxCell id="QhW3a99j18ydDRRvAq2B-35" value="Logout" style="rounded=1;whiteSpace=wrap;html=1;fontSize=12;glass=0;strokeWidth=1;shadow=0;fillColor=#A8DADC;labelBackgroundColor=none;strokeColor=#457B9D;fontColor=#1D3557;sketch=1;curveFitting=1;jiggle=2;" vertex="1" parent="WIyWlLk6GJQsqaUBKTNV-1">
          <mxGeometry x="730" y="510" width="120" height="40" as="geometry" />
        </mxCell>
        <mxCell id="QhW3a99j18ydDRRvAq2B-87" style="edgeStyle=orthogonalEdgeStyle;rounded=1;orthogonalLoop=1;jettySize=auto;html=1;exitX=0.5;exitY=1;exitDx=0;exitDy=0;labelBackgroundColor=none;strokeColor=#457B9D;fontColor=default;sketch=1;curveFitting=1;jiggle=2;" edge="1" parent="WIyWlLk6GJQsqaUBKTNV-1" source="QhW3a99j18ydDRRvAq2B-38">
          <mxGeometry relative="1" as="geometry">
            <mxPoint x="500" y="820" as="targetPoint" />
            <Array as="points">
              <mxPoint x="270" y="820" />
            </Array>
          </mxGeometry>
        </mxCell>
        <mxCell id="QhW3a99j18ydDRRvAq2B-38" value="Cek Jadwal Studi&lt;span style=&quot;background-color: transparent; color: light-dark(rgb(0, 0, 0), rgb(255, 255, 255));&quot;&gt;o&lt;/span&gt;" style="rounded=1;whiteSpace=wrap;html=1;fontSize=12;glass=0;strokeWidth=1;shadow=0;fillColor=#A8DADC;labelBackgroundColor=none;strokeColor=#457B9D;fontColor=#1D3557;sketch=1;curveFitting=1;jiggle=2;" vertex="1" parent="WIyWlLk6GJQsqaUBKTNV-1">
          <mxGeometry x="210" y="510" width="120" height="40" as="geometry" />
        </mxCell>
        <mxCell id="QhW3a99j18ydDRRvAq2B-42" value="" style="edgeStyle=orthogonalEdgeStyle;rounded=1;orthogonalLoop=1;jettySize=auto;html=1;labelBackgroundColor=none;strokeColor=#457B9D;fontColor=default;sketch=1;curveFitting=1;jiggle=2;" edge="1" parent="WIyWlLk6GJQsqaUBKTNV-1" source="QhW3a99j18ydDRRvAq2B-39" target="QhW3a99j18ydDRRvAq2B-41">
          <mxGeometry relative="1" as="geometry" />
        </mxCell>
        <mxCell id="QhW3a99j18ydDRRvAq2B-97" value="yes" style="edgeLabel;html=1;align=center;verticalAlign=middle;resizable=0;points=[];sketch=1;hachureGap=4;jiggle=2;curveFitting=1;strokeColor=#457B9D;fontFamily=Architects Daughter;fontSource=https%3A%2F%2Ffonts.googleapis.com%2Fcss%3Ffamily%3DArchitects%2BDaughter;fontColor=#1D3557;fillColor=#A8DADC;" vertex="1" connectable="0" parent="QhW3a99j18ydDRRvAq2B-42">
          <mxGeometry x="-0.4614" y="-2" relative="1" as="geometry">
            <mxPoint as="offset" />
          </mxGeometry>
        </mxCell>
        <mxCell id="QhW3a99j18ydDRRvAq2B-83" value="" style="edgeStyle=orthogonalEdgeStyle;rounded=1;orthogonalLoop=1;jettySize=auto;html=1;labelBackgroundColor=none;strokeColor=#457B9D;fontColor=default;sketch=1;curveFitting=1;jiggle=2;" edge="1" parent="WIyWlLk6GJQsqaUBKTNV-1" source="QhW3a99j18ydDRRvAq2B-39" target="QhW3a99j18ydDRRvAq2B-82">
          <mxGeometry relative="1" as="geometry" />
        </mxCell>
        <mxCell id="QhW3a99j18ydDRRvAq2B-98" value="no" style="edgeLabel;html=1;align=center;verticalAlign=middle;resizable=0;points=[];sketch=1;hachureGap=4;jiggle=2;curveFitting=1;strokeColor=#457B9D;fontFamily=Architects Daughter;fontSource=https%3A%2F%2Ffonts.googleapis.com%2Fcss%3Ffamily%3DArchitects%2BDaughter;fontColor=#1D3557;fillColor=#A8DADC;" vertex="1" connectable="0" parent="QhW3a99j18ydDRRvAq2B-83">
          <mxGeometry x="-0.3292" y="-2" relative="1" as="geometry">
            <mxPoint as="offset" />
          </mxGeometry>
        </mxCell>
        <mxCell id="QhW3a99j18ydDRRvAq2B-39" value="Konfirmasi Booking" style="rhombus;whiteSpace=wrap;html=1;rounded=1;glass=0;strokeWidth=1;shadow=0;fillColor=#A8DADC;labelBackgroundColor=none;strokeColor=#457B9D;fontColor=#1D3557;sketch=1;curveFitting=1;jiggle=2;" vertex="1" parent="WIyWlLk6GJQsqaUBKTNV-1">
          <mxGeometry x="445.5" y="585" width="103" height="80" as="geometry" />
        </mxCell>
        <mxCell id="QhW3a99j18ydDRRvAq2B-41" value="Booking Berhasil" style="whiteSpace=wrap;html=1;rounded=1;glass=0;strokeWidth=1;shadow=0;fillColor=#A8DADC;labelBackgroundColor=none;strokeColor=#457B9D;fontColor=#1D3557;sketch=1;curveFitting=1;jiggle=2;" vertex="1" parent="WIyWlLk6GJQsqaUBKTNV-1">
          <mxGeometry x="437" y="700" width="120" height="40" as="geometry" />
        </mxCell>
        <mxCell id="QhW3a99j18ydDRRvAq2B-51" value="" style="edgeStyle=orthogonalEdgeStyle;rounded=1;orthogonalLoop=1;jettySize=auto;html=1;labelBackgroundColor=none;strokeColor=#457B9D;fontColor=default;sketch=1;curveFitting=1;jiggle=2;" edge="1" parent="WIyWlLk6GJQsqaUBKTNV-1" source="QhW3a99j18ydDRRvAq2B-47" target="QhW3a99j18ydDRRvAq2B-50">
          <mxGeometry relative="1" as="geometry" />
        </mxCell>
        <mxCell id="QhW3a99j18ydDRRvAq2B-47" value="List Booking" style="rounded=1;whiteSpace=wrap;html=1;fontSize=12;glass=0;strokeWidth=1;shadow=0;fillColor=#A8DADC;labelBackgroundColor=none;strokeColor=#457B9D;fontColor=#1D3557;sketch=1;curveFitting=1;jiggle=2;" vertex="1" parent="WIyWlLk6GJQsqaUBKTNV-1">
          <mxGeometry x="580" y="580" width="120" height="40" as="geometry" />
        </mxCell>
        <mxCell id="QhW3a99j18ydDRRvAq2B-90" style="edgeStyle=orthogonalEdgeStyle;rounded=1;orthogonalLoop=1;jettySize=auto;html=1;exitX=1;exitY=0.5;exitDx=0;exitDy=0;entryX=1;entryY=0.5;entryDx=0;entryDy=0;labelBackgroundColor=none;strokeColor=#457B9D;fontColor=default;sketch=1;curveFitting=1;jiggle=2;" edge="1" parent="WIyWlLk6GJQsqaUBKTNV-1" source="QhW3a99j18ydDRRvAq2B-50" target="QhW3a99j18ydDRRvAq2B-32">
          <mxGeometry relative="1" as="geometry">
            <Array as="points">
              <mxPoint x="720" y="690" />
              <mxPoint x="720" y="530" />
            </Array>
          </mxGeometry>
        </mxCell>
        <mxCell id="QhW3a99j18ydDRRvAq2B-95" value="no" style="edgeLabel;html=1;align=center;verticalAlign=middle;resizable=0;points=[];sketch=1;hachureGap=4;jiggle=2;curveFitting=1;strokeColor=#457B9D;fontFamily=Architects Daughter;fontSource=https%3A%2F%2Ffonts.googleapis.com%2Fcss%3Ffamily%3DArchitects%2BDaughter;fontColor=#1D3557;fillColor=#A8DADC;" vertex="1" connectable="0" parent="QhW3a99j18ydDRRvAq2B-90">
          <mxGeometry x="0.0672" y="3" relative="1" as="geometry">
            <mxPoint as="offset" />
          </mxGeometry>
        </mxCell>
        <mxCell id="QhW3a99j18ydDRRvAq2B-104" value="" style="edgeStyle=orthogonalEdgeStyle;rounded=0;sketch=1;hachureGap=4;jiggle=2;curveFitting=1;orthogonalLoop=1;jettySize=auto;html=1;strokeColor=#457B9D;fontFamily=Architects Daughter;fontSource=https%3A%2F%2Ffonts.googleapis.com%2Fcss%3Ffamily%3DArchitects%2BDaughter;fontColor=#1D3557;fillColor=#A8DADC;" edge="1" parent="WIyWlLk6GJQsqaUBKTNV-1" source="QhW3a99j18ydDRRvAq2B-50" target="QhW3a99j18ydDRRvAq2B-56">
          <mxGeometry relative="1" as="geometry" />
        </mxCell>
        <mxCell id="QhW3a99j18ydDRRvAq2B-105" value="yes" style="edgeLabel;html=1;align=center;verticalAlign=middle;resizable=0;points=[];sketch=1;hachureGap=4;jiggle=2;curveFitting=1;strokeColor=#457B9D;fontFamily=Architects Daughter;fontSource=https%3A%2F%2Ffonts.googleapis.com%2Fcss%3Ffamily%3DArchitects%2BDaughter;fontColor=#1D3557;fillColor=#A8DADC;" vertex="1" connectable="0" parent="QhW3a99j18ydDRRvAq2B-104">
          <mxGeometry x="0.3342" relative="1" as="geometry">
            <mxPoint as="offset" />
          </mxGeometry>
        </mxCell>
        <mxCell id="QhW3a99j18ydDRRvAq2B-50" value="Hapus Booking" style="rhombus;whiteSpace=wrap;html=1;rounded=1;glass=0;strokeWidth=1;shadow=0;fillColor=#A8DADC;labelBackgroundColor=none;strokeColor=#457B9D;fontColor=#1D3557;sketch=1;curveFitting=1;jiggle=2;" vertex="1" parent="WIyWlLk6GJQsqaUBKTNV-1">
          <mxGeometry x="595" y="650" width="90" height="80" as="geometry" />
        </mxCell>
        <mxCell id="QhW3a99j18ydDRRvAq2B-111" style="edgeStyle=orthogonalEdgeStyle;rounded=0;sketch=1;hachureGap=4;jiggle=2;curveFitting=1;orthogonalLoop=1;jettySize=auto;html=1;exitX=0.5;exitY=1;exitDx=0;exitDy=0;strokeColor=#457B9D;fontFamily=Architects Daughter;fontSource=https%3A%2F%2Ffonts.googleapis.com%2Fcss%3Ffamily%3DArchitects%2BDaughter;fontColor=#1D3557;fillColor=#A8DADC;" edge="1" parent="WIyWlLk6GJQsqaUBKTNV-1" source="QhW3a99j18ydDRRvAq2B-56">
          <mxGeometry relative="1" as="geometry">
            <mxPoint x="880" y="620" as="targetPoint" />
            <Array as="points">
              <mxPoint x="640" y="840" />
              <mxPoint x="881" y="840" />
              <mxPoint x="881" y="620" />
            </Array>
          </mxGeometry>
        </mxCell>
        <mxCell id="QhW3a99j18ydDRRvAq2B-56" value="Booking Terhapus" style="whiteSpace=wrap;html=1;rounded=1;glass=0;strokeWidth=1;shadow=0;fillColor=#A8DADC;labelBackgroundColor=none;strokeColor=#457B9D;fontColor=#1D3557;sketch=1;curveFitting=1;jiggle=2;" vertex="1" parent="WIyWlLk6GJQsqaUBKTNV-1">
          <mxGeometry x="580" y="760" width="120" height="40" as="geometry" />
        </mxCell>
        <mxCell id="QhW3a99j18ydDRRvAq2B-62" value="" style="edgeStyle=orthogonalEdgeStyle;rounded=1;orthogonalLoop=1;jettySize=auto;html=1;labelBackgroundColor=none;strokeColor=#457B9D;fontColor=default;sketch=1;curveFitting=1;jiggle=2;" edge="1" parent="WIyWlLk6GJQsqaUBKTNV-1" source="QhW3a99j18ydDRRvAq2B-59" target="QhW3a99j18ydDRRvAq2B-61">
          <mxGeometry relative="1" as="geometry" />
        </mxCell>
        <mxCell id="QhW3a99j18ydDRRvAq2B-96" value="yes" style="edgeLabel;html=1;align=center;verticalAlign=middle;resizable=0;points=[];sketch=1;hachureGap=4;jiggle=2;curveFitting=1;strokeColor=#457B9D;fontFamily=Architects Daughter;fontSource=https%3A%2F%2Ffonts.googleapis.com%2Fcss%3Ffamily%3DArchitects%2BDaughter;fontColor=#1D3557;fillColor=#A8DADC;" vertex="1" connectable="0" parent="QhW3a99j18ydDRRvAq2B-62">
          <mxGeometry x="-0.1234" y="-1" relative="1" as="geometry">
            <mxPoint as="offset" />
          </mxGeometry>
        </mxCell>
        <mxCell id="QhW3a99j18ydDRRvAq2B-93" style="edgeStyle=orthogonalEdgeStyle;rounded=1;orthogonalLoop=1;jettySize=auto;html=1;exitX=1;exitY=0.5;exitDx=0;exitDy=0;entryX=1;entryY=0.5;entryDx=0;entryDy=0;labelBackgroundColor=none;strokeColor=#457B9D;fontColor=default;sketch=1;curveFitting=1;jiggle=2;" edge="1" parent="WIyWlLk6GJQsqaUBKTNV-1" source="QhW3a99j18ydDRRvAq2B-59" target="QhW3a99j18ydDRRvAq2B-15">
          <mxGeometry relative="1" as="geometry">
            <Array as="points">
              <mxPoint x="880" y="625" />
              <mxPoint x="880" y="450" />
            </Array>
          </mxGeometry>
        </mxCell>
        <mxCell id="QhW3a99j18ydDRRvAq2B-94" value="no&lt;div&gt;&lt;br&gt;&lt;/div&gt;" style="edgeLabel;html=1;align=center;verticalAlign=middle;resizable=0;points=[];sketch=1;hachureGap=4;jiggle=2;curveFitting=1;strokeColor=#457B9D;fontFamily=Architects Daughter;fontSource=https%3A%2F%2Ffonts.googleapis.com%2Fcss%3Ffamily%3DArchitects%2BDaughter;fontColor=#1D3557;fillColor=#A8DADC;" vertex="1" connectable="0" parent="QhW3a99j18ydDRRvAq2B-93">
          <mxGeometry x="-0.2956" y="1" relative="1" as="geometry">
            <mxPoint as="offset" />
          </mxGeometry>
        </mxCell>
        <mxCell id="QhW3a99j18ydDRRvAq2B-59" value="yakin logout?" style="rhombus;whiteSpace=wrap;html=1;rounded=1;glass=0;strokeWidth=1;shadow=0;fillColor=#A8DADC;labelBackgroundColor=none;strokeColor=#457B9D;fontColor=#1D3557;sketch=1;curveFitting=1;jiggle=2;" vertex="1" parent="WIyWlLk6GJQsqaUBKTNV-1">
          <mxGeometry x="735" y="585" width="110" height="80" as="geometry" />
        </mxCell>
        <mxCell id="QhW3a99j18ydDRRvAq2B-88" style="edgeStyle=orthogonalEdgeStyle;rounded=1;orthogonalLoop=1;jettySize=auto;html=1;exitX=0.5;exitY=1;exitDx=0;exitDy=0;labelBackgroundColor=none;strokeColor=#457B9D;fontColor=default;sketch=1;curveFitting=1;jiggle=2;" edge="1" parent="WIyWlLk6GJQsqaUBKTNV-1" source="QhW3a99j18ydDRRvAq2B-61">
          <mxGeometry relative="1" as="geometry">
            <mxPoint x="500" y="820" as="targetPoint" />
            <Array as="points">
              <mxPoint x="790" y="820" />
            </Array>
          </mxGeometry>
        </mxCell>
        <mxCell id="QhW3a99j18ydDRRvAq2B-61" value="Akun Logout" style="whiteSpace=wrap;html=1;rounded=1;glass=0;strokeWidth=1;shadow=0;fillColor=#A8DADC;labelBackgroundColor=none;strokeColor=#457B9D;fontColor=#1D3557;sketch=1;curveFitting=1;jiggle=2;" vertex="1" parent="WIyWlLk6GJQsqaUBKTNV-1">
          <mxGeometry x="730" y="710" width="120" height="40" as="geometry" />
        </mxCell>
        <mxCell id="QhW3a99j18ydDRRvAq2B-67" value="END" style="strokeWidth=2;html=1;shape=mxgraph.flowchart.terminator;whiteSpace=wrap;fillColor=#A8DADC;labelBackgroundColor=none;strokeColor=#457B9D;fontColor=#1D3557;rounded=1;sketch=1;curveFitting=1;jiggle=2;" vertex="1" parent="WIyWlLk6GJQsqaUBKTNV-1">
          <mxGeometry x="447" y="860" width="100" height="60" as="geometry" />
        </mxCell>
        <mxCell id="QhW3a99j18ydDRRvAq2B-69" value="" style="edgeStyle=orthogonalEdgeStyle;rounded=1;orthogonalLoop=1;jettySize=auto;html=1;labelBackgroundColor=none;strokeColor=#457B9D;fontColor=default;sketch=1;curveFitting=1;jiggle=2;" edge="1" parent="WIyWlLk6GJQsqaUBKTNV-1" source="QhW3a99j18ydDRRvAq2B-68" target="QhW3a99j18ydDRRvAq2B-2">
          <mxGeometry relative="1" as="geometry" />
        </mxCell>
        <mxCell id="QhW3a99j18ydDRRvAq2B-68" value="START" style="strokeWidth=2;html=1;shape=mxgraph.flowchart.terminator;whiteSpace=wrap;fillColor=#A8DADC;labelBackgroundColor=none;strokeColor=#457B9D;fontColor=#1D3557;rounded=1;sketch=1;curveFitting=1;jiggle=2;" vertex="1" parent="WIyWlLk6GJQsqaUBKTNV-1">
          <mxGeometry x="540" y="50" width="100" height="60" as="geometry" />
        </mxCell>
        <mxCell id="QhW3a99j18ydDRRvAq2B-81" style="edgeStyle=orthogonalEdgeStyle;rounded=1;orthogonalLoop=1;jettySize=auto;html=1;exitX=0.5;exitY=0;exitDx=0;exitDy=0;entryX=0;entryY=0.5;entryDx=0;entryDy=0;labelBackgroundColor=none;strokeColor=#457B9D;fontColor=default;sketch=1;curveFitting=1;jiggle=2;" edge="1" parent="WIyWlLk6GJQsqaUBKTNV-1" source="QhW3a99j18ydDRRvAq2B-78" target="QhW3a99j18ydDRRvAq2B-4">
          <mxGeometry relative="1" as="geometry" />
        </mxCell>
        <mxCell id="QhW3a99j18ydDRRvAq2B-78" value="Pesan Gagal Login" style="whiteSpace=wrap;html=1;fillColor=#A8DADC;shadow=0;strokeWidth=1;spacing=6;spacingTop=-4;labelBackgroundColor=none;strokeColor=#457B9D;fontColor=#1D3557;rounded=1;sketch=1;curveFitting=1;jiggle=2;" vertex="1" parent="WIyWlLk6GJQsqaUBKTNV-1">
          <mxGeometry x="370" y="340" width="100" height="40" as="geometry" />
        </mxCell>
        <mxCell id="QhW3a99j18ydDRRvAq2B-112" style="edgeStyle=orthogonalEdgeStyle;rounded=0;sketch=1;hachureGap=4;jiggle=2;curveFitting=1;orthogonalLoop=1;jettySize=auto;html=1;exitX=0.5;exitY=0;exitDx=0;exitDy=0;entryX=0;entryY=0.5;entryDx=0;entryDy=0;strokeColor=#457B9D;fontFamily=Architects Daughter;fontSource=https%3A%2F%2Ffonts.googleapis.com%2Fcss%3Ffamily%3DArchitects%2BDaughter;fontColor=#1D3557;fillColor=#A8DADC;" edge="1" parent="WIyWlLk6GJQsqaUBKTNV-1" source="QhW3a99j18ydDRRvAq2B-82" target="QhW3a99j18ydDRRvAq2B-21">
          <mxGeometry relative="1" as="geometry" />
        </mxCell>
        <mxCell id="QhW3a99j18ydDRRvAq2B-82" value="Booking dibatalkan" style="whiteSpace=wrap;html=1;fillColor=#A8DADC;rounded=1;glass=0;strokeWidth=1;shadow=0;labelBackgroundColor=none;strokeColor=#457B9D;fontColor=#1D3557;sketch=1;curveFitting=1;jiggle=2;" vertex="1" parent="WIyWlLk6GJQsqaUBKTNV-1">
          <mxGeometry x="320" y="602.5" width="90" height="45" as="geometry" />
        </mxCell>
        <mxCell id="QhW3a99j18ydDRRvAq2B-109" style="edgeStyle=orthogonalEdgeStyle;rounded=0;sketch=1;hachureGap=4;jiggle=2;curveFitting=1;orthogonalLoop=1;jettySize=auto;html=1;exitX=0.5;exitY=1;exitDx=0;exitDy=0;entryX=0.5;entryY=0;entryDx=0;entryDy=0;entryPerimeter=0;strokeColor=#457B9D;fontFamily=Architects Daughter;fontSource=https%3A%2F%2Ffonts.googleapis.com%2Fcss%3Ffamily%3DArchitects%2BDaughter;fontColor=#1D3557;fillColor=#A8DADC;" edge="1" parent="WIyWlLk6GJQsqaUBKTNV-1" source="QhW3a99j18ydDRRvAq2B-41" target="QhW3a99j18ydDRRvAq2B-67">
          <mxGeometry relative="1" as="geometry" />
        </mxCell>
      </root>
    </mxGraphModel>
  </diagram>
</mxfile>
